<?xml version="1.0" encoding="UTF-8" standalone="no"?>
<!DOCTYPE svg PUBLIC "-//W3C//DTD SVG 1.1//EN"
 "http://www.w3.org/Graphics/SVG/1.1/DTD/svg11.dtd">
<!-- Generated by graphviz version 7.1.0 (20230121.1956)
 -->
<!-- Title: G Pages: 1 -->
<svg width="390pt" height="98pt"
 viewBox="0.00 0.00 389.75 98.00" xmlns="http://www.w3.org/2000/svg" xmlns:xlink="http://www.w3.org/1999/xlink">
<g id="graph0" class="graph" transform="scale(1 1) rotate(0) translate(4 94)">
<title>G</title>
<polygon fill="white" stroke="none" points="-4,4 -4,-94 385.75,-94 385.75,4 -4,4"/>
<!-- node1 -->
<g id="node1" class="node">
<title>node1</title>
<polygon fill="none" stroke="black" points="62.5,-90 8.5,-90 8.5,-54 62.5,-54 62.5,-90"/>
<text text-anchor="middle" x="35.5" y="-68.3" font-family="Times New Roman,serif" font-size="14.00">bbbb</text>
</g>
<!-- node2 -->
<g id="node3" class="node">
<title>node2</title>
<polygon fill="none" stroke="black" points="184.88,-63 138.12,-45 184.88,-27 231.63,-45 184.88,-63"/>
<text text-anchor="middle" x="184.88" y="-41.3" font-family="Times New Roman,serif" font-size="14.00">node2</text>
</g>
<!-- node1&#45;&gt;node2 -->
<g id="edge1" class="edge">
<title>node1&#45;&gt;node2</title>
<path fill="none" stroke="black" d="M62.85,-67.17C84.53,-63.2 115.7,-57.49 140.97,-52.86"/>
<polygon fill="black" stroke="black" points="141.42,-56.34 150.63,-51.09 140.16,-49.45 141.42,-56.34"/>
<text text-anchor="middle" x="104.5" y="-64.8" font-family="Times New Roman,serif" font-size="14.00">bbbb</text>
</g>
<!-- node11 -->
<g id="node2" class="node">
<title>node11</title>
<polygon fill="none" stroke="black" points="71,-36 0,-36 0,0 71,0 71,-36"/>
<text text-anchor="middle" x="35.5" y="-14.3" font-family="Times New Roman,serif" font-size="14.00">bbbsadfb</text>
</g>
<!-- node11&#45;&gt;node2 -->
<g id="edge2" class="edge">
<title>node11&#45;&gt;node2</title>
<path fill="none" stroke="black" d="M71.43,-24.4C92.3,-28.22 118.98,-33.11 141.11,-37.17"/>
<polygon fill="black" stroke="black" points="140.26,-40.57 150.73,-38.93 141.52,-33.68 140.26,-40.57"/>
<text text-anchor="middle" x="104.5" y="-36.8" font-family="Times New Roman,serif" font-size="14.00">bbbb</text>
</g>
<!-- node3 -->
<g id="node4" class="node">
<title>node3</title>
<polygon fill="none" stroke="black" points="298.75,-22 298.75,-68 381.75,-68 381.75,-22 298.75,-22"/>
<text text-anchor="middle" x="310.25" y="-41.3" font-family="Times New Roman,serif" font-size="14.00">a</text>
<polyline fill="none" stroke="black" points="321.75,-22 321.75,-68"/>
<text text-anchor="middle" x="340.25" y="-52.8" font-family="Times New Roman,serif" font-size="14.00">c</text>
<polyline fill="none" stroke="black" points="321.75,-45 358.75,-45"/>
<text text-anchor="middle" x="340.25" y="-29.8" font-family="Times New Roman,serif" font-size="14.00">abc</text>
<polyline fill="none" stroke="black" points="358.75,-22 358.75,-68"/>
<text text-anchor="middle" x="370.25" y="-41.3" font-family="Times New Roman,serif" font-size="14.00">c</text>
</g>
<!-- node2&#45;&gt;node3 -->
<g id="edge3" class="edge">
<title>node2&#45;&gt;node3</title>
<path fill="none" stroke="black" d="M232.73,-45C250.07,-45 269.83,-45 287.58,-45"/>
<polygon fill="black" stroke="black" points="287.39,-48.5 297.39,-45 287.39,-41.5 287.39,-48.5"/>
<text text-anchor="middle" x="265.25" y="-48.8" font-family="Times New Roman,serif" font-size="14.00">bbbb</text>
</g>
</g>
</svg>
